<?xml version="1.0" encoding="UTF-8"?>
<svg width="18px" height="19px" viewBox="0 0 18 19" version="1.1" xmlns="http://www.w3.org/2000/svg" xmlns:xlink="http://www.w3.org/1999/xlink">
    <!-- Generator: Sketch 63.1 (92452) - https://sketch.com -->
    <title>ic_pbi</title>
    <desc>Created with Sketch.</desc>
    <defs>
        <path d="M8.99511719,13.6816406 C9.33691406,13.6816406 9.53385417,13.5449219 9.5859375,13.2714844 L9.5859375,8.0078125 L11.578125,8.0078125 C11.8125,7.99479167 11.9231771,8.10546875 11.9101562,8.33984375 L11.9101562,11.25 C11.9036458,11.4778646 11.7994792,11.5950521 11.5976562,11.6015625 C11.3242188,11.5950521 11.0247396,11.5690104 10.6992188,11.5234375 C10.3671875,11.5429688 10.1897786,11.7399089 10.1669922,12.1142578 C10.1442057,12.4886068 10.4518229,12.7050781 11.0898438,12.7636719 L12.0664062,12.7636719 C12.6914062,12.7766927 13.0364583,12.4869792 13.1015625,11.8945312 L13.1015625,7.63671875 C13.1471354,7.05729167 12.8802083,6.79036458 12.3007812,6.8359375 L9.5859375,6.8359375 L9.5859375,5.72265625 C10.0677083,5.71614583 10.6145833,5.69335938 11.2265625,5.65429688 C11.8385417,5.61523438 12.4375,5.546875 13.0234375,5.44921875 C13.3815104,5.34505208 13.5377604,5.13020833 13.4921875,4.8046875 C13.4466146,4.47916667 13.1927083,4.31640625 12.7304688,4.31640625 C11.5130208,4.45963542 10.2190755,4.56217448 8.84863281,4.62402344 C7.4781901,4.6858724 6.2265625,4.6875 5.09375,4.62890625 C4.65104167,4.66145833 4.42643229,4.85677083 4.41992188,5.21484375 C4.41341146,5.57291667 4.61848958,5.78125 5.03515625,5.83984375 C6.1484375,5.859375 7.27473958,5.84635417 8.4140625,5.80078125 L8.4140625,6.8359375 L5.8359375,6.8359375 C5.26302083,6.79036458 5.00260417,7.05729167 5.0546875,7.63671875 L5.0546875,12.5097656 C5.10026042,12.7897135 5.29394531,12.9296875 5.63574219,12.9296875 C5.97753906,12.9296875 6.17447917,12.7897135 6.2265625,12.5097656 L6.2265625,8.33984375 C6.22005208,8.10546875 6.33072917,7.99479167 6.55859375,8.0078125 L8.4140625,8.0078125 L8.4140625,13.2714844 C8.45963542,13.5449219 8.65332031,13.6816406 8.99511719,13.6816406 Z" id="path-1"></path>
        <filter x="-22.0%" y="-10.7%" width="144.1%" height="142.7%" filterUnits="objectBoundingBox" id="filter-2">
            <feOffset dx="0" dy="1" in="SourceAlpha" result="shadowOffsetOuter1"></feOffset>
            <feGaussianBlur stdDeviation="0.5" in="shadowOffsetOuter1" result="shadowBlurOuter1"></feGaussianBlur>
            <feColorMatrix values="0 0 0 0 0   0 0 0 0 0   0 0 0 0 0  0 0 0 0.236041302 0" type="matrix" in="shadowBlurOuter1"></feColorMatrix>
        </filter>
    </defs>
    <g id="twitter_暗色UI" stroke="none" stroke-width="1" fill="none" fill-rule="evenodd">
        <g id="账变记录_2" transform="translate(-309.000000, -154.000000)">
            <g id="内容区" transform="translate(0.000000, 88.000000)">
                <g id="1" transform="translate(0.000000, 50.000000)">
                    <g id="编组-4" transform="translate(16.000000, 15.000000)">
                        <g id="钻石" transform="translate(293.000000, 0.000000)">
                            <g id="ic_pbi" transform="translate(0.000000, 1.500000)">
                                <rect id="矩形" stroke="#FFCC25" stroke-width="1.5" fill="#CBA01F" x="0.75" y="0.75" width="16.5" height="16.5" rx="8.25"></rect>
                                <g id="币" fill-rule="nonzero">
                                    <use fill="black" fill-opacity="1" filter="url(#filter-2)" xlink:href="#path-1"></use>
                                    <use fill="#FFF1C4" xlink:href="#path-1"></use>
                                </g>
                            </g>
                        </g>
                    </g>
                </g>
            </g>
        </g>
    </g>
</svg>